<svg version="1.2" baseProfile="tiny-ps" xmlns="http://www.w3.org/2000/svg" viewBox="0 0 1564 1566" width="1564" height="1566"><title>truist-logo-purple-svg copy-svg</title><style>tspan { white-space:pre }.shp0 { fill: #2e1a47 } </style><g id="truist-logo"><g id="global/truist-logo--purple"><path id="tru_lg_hrz_rgb_pos" fill-rule="evenodd" class="shp0" d="M0.56 1422.17L0.56 143.77C0.56 54.38 54.15 0.71 143.47 0.71L1420.64 0.71C1509.96 0.71 1563.55 54.38 1563.55 143.77L1563.55 1422.17C1563.55 1511.56 1509.96 1565.23 1420.64 1565.23L143.47 1565.23C54.15 1565.23 0.56 1511.56 0.56 1422.17ZM1432.13 1433.65L1432.13 858.96L1035.29 858.96L1035.29 1143.74L883.5 1143.74L883.5 422.19L1035.29 422.19L1035.29 706.98L1432.13 706.98L1432.13 132.29L131.98 132.29L131.98 706.98L528.77 706.98L528.77 422.19L680.61 422.19L680.61 1143.74L528.77 1143.74L528.77 858.96L131.98 858.96L131.98 1433.65L1432.13 1433.65Z" /></g></g></svg>